<svg xmlns="http://www.w3.org/2000/svg" viewBox="0 0 24 24" role="img" aria-label="Max"><defs><linearGradient id="lgmax" x1="0" y1="0" x2="1" y2="1"><stop offset="0%" stop-color="#2DD4FF"/><stop offset="55%" stop-color="#2563EB"/><stop offset="100%" stop-color="#7C3AED"/></linearGradient></defs><path fill="url(#lgmax)" d="M12 2a10 10 0 0 0-8.7 15l-1.2 4a1 1 0 0 0 1.3 1.2l4-1.2A10 10 0 1 0 12 2Zm4.8 13.6a1 1 0 0 1-1.4 0L12 12.2l-3.4 3.4a1 1 0 1 1-1.4-1.4L10.6 11 7.2 7.6a1 1 0 1 1 1.4-1.4L12 9.8l3.4-3.4a1 1 0 1 1 1.4 1.4L13.4 11l3.4 3.4a1 1 0 0 1 0 1.2Z"/></svg>
