<svg xmlns="http://www.w3.org/2000/svg" viewBox="0 0 24 24" role="img" aria-label="Viber"><path fill="#7360F2" d="M12 2C6.5 2 2 5.9 2 10.8c0 2.8 1.4 5.2 3.7 6.8L5 22l4.3-2.4c0.9 0.2 1.8 0.3 2.7 0.3 5.5 0 10-3.9 10-8.8S17.5 2 12 2Zm0 15.9c-0.8 0-1.6-0.1-2.4-0.3l-0.4-0.1-2.2 1.2 0.3-2.2-0.4-0.3C4.9 14.8 4 12.9 4 10.8 4 7 7.6 4 12 4s8 3 8 6.8-3.6 7.1-8 7.1Zm3.4-4.1c-0.4-0.2-0.9-0.4-1.3-0.4-0.3 0-0.5 0.1-0.7 0.4l-0.5 0.6c-0.2 0.2-0.3 0.2-0.6 0.1-0.8-0.3-2.3-1.6-2.7-2.3-0.1-0.2-0.1-0.4 0.1-0.5l0.5-0.5c0.2-0.2 0.3-0.5 0.2-0.8-0.1-0.3-0.4-0.9-0.6-1.2-0.3-0.6-0.5-0.7-0.8-0.7h-0.5c-0.4 0-0.7 0.2-0.9 0.5-0.3 0.4-0.5 1-0.5 1.4 0 0.4 0.2 1.7 1.4 3.1 1.4 1.7 3.4 2.8 4.8 3 0.2 0 0.3 0 0.5 0 0.8 0 1.4-0.3 1.7-0.7 0.3-0.4 0.5-1 0.5-1.3 0-0.2-0.1-0.3-0.3-0.4Z"/></svg>
