<svg xmlns="http://www.w3.org/2000/svg" viewBox="0 0 24 24" role="img" aria-label="VK"><path fill="#0077FF" d="M12.785 16.241s.288-.032.436-.195c.136-.148.132-.427.132-.427s-.02-1.304.576-1.496c.586-.19 1.341 1.26 2.14 1.818.605.42 1.064.328 1.064.328l2.137-.03s1.117-.07.587-.962c-.043-.073-.308-.66-1.588-1.868-1.34-1.262-1.16-1.058.453-3.243.983-1.328 1.376-2.14 1.253-2.485-.117-.328-.84-.242-.84-.242l-2.406.015s-.178-.025-.31.056c-.13.08-.21.267-.21.267s-.383 1.02-.89 1.889c-1.07 1.818-1.499 1.913-1.675 1.796-.408-.27-.306-1.09-.306-1.67 0-1.818.27-2.575-.527-2.773-.264-.064-.459-.106-1.137-.113-.867-.008-1.602.003-2.059.208-.281.1-.496.323-.363.335.164.015.534.032.73.442.248.52.24 1.69.24 1.69s.144 2.103-.332 2.363c-.326.178-.774-.185-1.737-1.847-.493-.854-.863-1.8-.863-1.8s-.07-.164-.196-.252c-.154-.107-.371-.14-.371-.14l-2.287.015s-.344.01-.47.162c-.112.137-.01.418-.01.418s1.774 4.16 3.773 6.26c1.838 1.93 3.93 1.8 3.93 1.8h.946z"/></svg>
