<svg xmlns="http://www.w3.org/2000/svg" viewBox="0 0 24 24" role="img" aria-label="WhatsApp"><path fill="#25D366" d="M12 2C6.5 2 2 6.3 2 11.7c0 2 0.6 3.9 1.8 5.5L2 22l4.9-1.5c1.5 0.8 3.2 1.2 5 1.2 5.5 0 10-4.3 10-9.7S17.5 2 12 2Zm0 17.7c-1.5 0-2.9-0.4-4.2-1.1l-0.3-0.2-2.9 0.9 1-2.8-0.2-0.3c-1-1.3-1.5-2.8-1.5-4.4 0-4.3 3.6-7.7 8-7.7s8 3.4 8 7.7-3.6 7.9-8 7.9Zm4.4-5.9c-0.2-0.1-1.3-0.6-1.5-0.6s-0.4-0.1-0.6 0.1c-0.2 0.2-0.7 0.7-0.9 0.8-0.2 0.1-0.3 0.1-0.6 0-0.2-0.1-1-0.4-1.8-1.2-0.7-0.6-1.2-1.4-1.3-1.6-0.1-0.2 0-0.3 0.1-0.4 0.1-0.1 0.2-0.3 0.3-0.4 0.1-0.2 0.2-0.3 0.3-0.5 0.1-0.2 0-0.4 0-0.5S9.7 7.9 9.5 7.5c-0.2-0.4-0.4-0.3-0.6-0.3h-0.5c-0.2 0-0.5 0.1-0.8 0.4-0.2 0.3-1 1-1 2.4s1 2.8 1.1 3c0.1 0.2 2 3.1 4.9 4.2 0.7 0.3 1.2 0.4 1.6 0.5 0.7 0.2 1.4 0.2 1.9 0.1 0.6-0.1 1.8-0.8 2-1.5 0.2-0.7 0.2-1.3 0.2-1.4-0.1-0.1-0.2-0.2-0.4-0.3Z"/></svg>
